<svg width="12" height="7" viewBox="0 0 12 7" fill="none" xmlns="http://www.w3.org/2000/svg">
<path d="M5.99991 6.66175C5.87939 6.66175 5.76721 6.64252 5.66338 6.60405C5.55953 6.56558 5.46081 6.49956 5.36723 6.40597L0.873005 1.91175C0.734539 1.7733 0.663705 1.59927 0.660505 1.38965C0.657289 1.18003 0.728122 1.00279 0.873005 0.857924C1.01787 0.713057 1.1935 0.640625 1.3999 0.640625C1.6063 0.640625 1.78194 0.713057 1.9268 0.857924L5.99991 4.93102L10.073 0.857924C10.2115 0.719474 10.3855 0.648641 10.5951 0.645424C10.8047 0.642224 10.9819 0.713057 11.1268 0.857924C11.2717 1.00279 11.3441 1.17843 11.3441 1.38485C11.3441 1.59125 11.2717 1.76688 11.1268 1.91175L6.63258 6.40597C6.539 6.49956 6.44028 6.56558 6.33643 6.60405C6.2326 6.64252 6.12042 6.66175 5.99991 6.66175Z" fill="#C6CADA"/>
</svg>
